<svg xmlns="http://www.w3.org/2000/svg" width="40.125" height="40" viewBox="0 0 40.125 40">
  <defs>
    <style>
      .cls-1 {
        fill: #fff;
        fill-rule: evenodd;
      }
    </style>
  </defs>
  <path id="dribbble" class="cls-1" d="M279.939,1765A20,20,0,1,1,300,1745,20.028,20.028,0,0,1,279.939,1765Zm15.874-17.77a28.318,28.318,0,0,0-9.882-.64,65.013,65.013,0,0,1,3.316,11.43A16,16,0,0,0,295.813,1747.23ZM279.939,1761a15.965,15.965,0,0,0,6.453-1.37,60.282,60.282,0,0,0-3.779-12.38,21.1,21.1,0,0,0-12.824,10.14A16.037,16.037,0,0,0,279.939,1761Zm-16.048-16a15.92,15.92,0,0,0,3.659,10.17,23.906,23.906,0,0,1,13.821-10.71c-0.515-1.1-1.042-2.15-1.57-3.16-7.3,2.82-12.811,3.03-15.864,2.79C263.92,1744.39,263.891,1744.69,263.891,1745Zm0.473-3.79a43.249,43.249,0,0,0,14.12-2.33,83.264,83.264,0,0,0-5.389-8.34A16.043,16.043,0,0,0,264.364,1741.21ZM279.939,1729a16.468,16.468,0,0,0-3.809.46,57.513,57.513,0,0,1,5.538,8.1,36.434,36.434,0,0,0,8.156-5.15A16,16,0,0,0,279.939,1729Zm12.276,5.7a65.127,65.127,0,0,1-9.249,5.26c0.665,1.3,1.265,2.58,1.806,3.82a29.778,29.778,0,0,1,11.2.86A15.909,15.909,0,0,0,292.215,1734.7Z" transform="translate(-259.875 -1725)"/>
</svg>
