<svg xmlns="http://www.w3.org/2000/svg" width="42.781" height="34.78" viewBox="0 0 42.781 34.78">
  <defs>
    <style>
      .cls-1 {
        fill: #fff;
        fill-rule: evenodd;
      }
    </style>
  </defs>
  <path id="twitter" class="cls-1" d="M108.8,1726.67l-4.012,4v0.66a8.613,8.613,0,0,1-.289,2.11A23.5,23.5,0,0,1,95.421,1752c-14.2,11.33-29.422,1.33-29.422,1.33,12.036,0,12.036-4,12.036-4-2.675,0-8.024-5.33-8.024-5.33,1.337,1.33,4.012,0,4.012,0-6.687-4-6.687-8-6.687-8,1.337,1.33,4.012,0,4.012,0a9.191,9.191,0,0,1-2.675-12c1.337,6.67,18.723,9.33,18.723,9.33l0.221-.11a15.686,15.686,0,0,1-.221-2.55c0-4.79,3.892-8,8.693-8a8.657,8.657,0,0,1,6.575,3.05l0.78-.39,4.013-2.66-2.675,5.33Z" transform="translate(-66 -1722.66)"/>
</svg>
